# xmcd
#
# Track frame offsets: 
#        150
#        15972
#        35437
#        55010
#        69305
#        101330
#        119747
#        132672
#        165365
#        181052
#        206022
#        225600
#        246905
#
# Disc length: 3565 seconds
#
# Revision: 0
# Processed by: cddbd v1.5.1PL0 Copyright (c) Steve Scherf et al.
# Submitted via: ExactAudioCopy v0.95a5
#
DISCID=a60deb0d
DTITLE=Eddie Shaw and The Wolf Gang - Can't Stop Now
DYEAR=1900
DGENRE=
TTITLE0=Greedy Man
TTITLE1=Can't Stop Now
TTITLE2=Casino Blues
TTITLE3=Howlin' For My Darling
TTITLE4=Stole My Daughter
TTITLE5=We're Gonna Make It
TTITLE6=Rockin' With Eddie
TTITLE7=Love Me Or Leave Me
TTITLE8=Chicago Man
TTITLE9=Playing With The Blues
TTITLE10=Don't Use Me Baby
TTITLE11=Country Boy
TTITLE12=I Gotta Tell Somebody
EXTD=
EXTT0=
EXTT1=
EXTT2=
EXTT3=
EXTT4=
EXTT5=
EXTT6=
EXTT7=
EXTT8=
EXTT9=
EXTT10=
EXTT11=
EXTT12=
PLAYORDER=
